<svg xmlns="http://www.w3.org/2000/svg" version="1.1" xmlns:xlink="http://www.w3.org/1999/xlink" xmlns:svgjs="http://svgjs.dev/svgjs" width="2000" height="474" viewBox="0 0 2000 474"><g transform="matrix(1,0,0,1,-1.2121212121212466,0.9673271002325805)"><svg viewBox="0 0 396 94" data-background-color="#ffffff" preserveAspectRatio="xMidYMid meet" height="474" width="2000" xmlns="http://www.w3.org/2000/svg" xmlns:xlink="http://www.w3.org/1999/xlink"><g id="tight-bounds" transform="matrix(1,0,0,1,0.2400000000000091,-0.19183280046806317)"><svg viewBox="0 0 395.52 94.3834764155224" height="94.3834764155224" width="395.52"><g><svg viewBox="0 0 554.2009802963321 132.2497349141845" height="94.3834764155224" width="395.52"><g transform="matrix(1,0,0,1,158.68098029633208,38.13468062938891)"><svg viewBox="0 0 395.52 55.98037365540668" height="55.98037365540668" width="395.52"><g id="textblocktransform"><svg viewBox="0 0 395.52 55.98037365540668" height="55.98037365540668" width="395.52" id="textblock"><g><svg viewBox="0 0 395.52 55.98037365540668" height="55.98037365540668" width="395.52"><g transform="matrix(1,0,0,1,0,0)"><svg width="395.52" viewBox="2.4 -37.1 261.79 37.5" height="55.98037365540668" data-palette-color="#b333b1"><g class="wordmark-text-0" data-fill-palette-color="primary" id="text-0"><path d="M20.9 0.4Q15.65 0.4 11.43-1.93 7.2-4.25 4.8-8.33 2.4-12.4 2.4-17.5L2.4-17.5Q2.4-22.6 4.8-26.68 7.2-30.75 11.45-33.08 15.7-35.4 20.95-35.4L20.95-35.4Q25.05-35.4 28.45-34.02 31.85-32.65 34.25-29.95L34.25-29.95 31-26.8Q27.05-30.95 21.15-30.95L21.15-30.95Q17.25-30.95 14.1-29.2 10.95-27.45 9.18-24.38 7.4-21.3 7.4-17.5L7.4-17.5Q7.4-13.7 9.18-10.63 10.95-7.55 14.1-5.8 17.25-4.05 21.15-4.05L21.15-4.05Q27-4.05 31-8.25L31-8.25 34.25-5.1Q31.85-2.4 28.43-1 25 0.4 20.9 0.4L20.9 0.4ZM79.65-35.4Q85.7-35.4 89.1-31.9 92.5-28.4 92.5-21.75L92.5-21.75 92.5 0 87.55 0 87.55-21.6Q87.55-26.2 85.15-28.58 82.75-30.95 78.8-30.95L78.8-30.95Q74.45-30.95 71.92-28.48 69.4-26 69.4-20.9L69.4-20.9 69.4 0 64.45 0 64.45-21.6Q64.45-26.25 62.17-28.6 59.9-30.95 55.95-30.95L55.95-30.95Q51.55-30.95 48.97-28.45 46.4-25.95 46.4-20.9L46.4-20.9 46.4 0 41.4 0 41.4-35 46.2-35 46.2-29.9Q47.75-32.5 50.57-33.95 53.4-35.4 57.15-35.4L57.15-35.4Q61.05-35.4 63.87-33.85 66.7-32.3 68.05-29.55L68.05-29.55Q69.7-32.35 72.72-33.88 75.75-35.4 79.65-35.4L79.65-35.4Z" fill="#b333b1" data-fill-palette-color="primary"></path><path d="M124.85-35Q131.65-35 135.55-31.75 139.45-28.5 139.45-22.8L139.45-22.8Q139.45-17.1 135.55-13.85 131.65-10.6 124.85-10.6L124.85-10.6 116.2-10.6 116.2 0 111.2 0 111.2-35 124.85-35ZM124.7-14.95Q129.45-14.95 131.95-16.98 134.45-19 134.45-22.8L134.45-22.8Q134.45-26.6 131.95-28.63 129.45-30.65 124.7-30.65L124.7-30.65 116.2-30.65 116.2-14.95 124.7-14.95ZM157.95 0.3Q154 0.3 150.84-1.45 147.7-3.2 145.92-6.28 144.15-9.35 144.15-13.25L144.15-13.25Q144.15-17.15 145.92-20.23 147.7-23.3 150.84-25.03 154-26.75 157.95-26.75L157.95-26.75Q161.9-26.75 165.02-25.03 168.15-23.3 169.92-20.23 171.7-17.15 171.7-13.25L171.7-13.25Q171.7-9.35 169.92-6.28 168.15-3.2 165.02-1.45 161.9 0.3 157.95 0.3L157.95 0.3ZM157.95-3.9Q160.5-3.9 162.52-5.08 164.55-6.25 165.7-8.38 166.84-10.5 166.84-13.25L166.84-13.25Q166.84-16 165.7-18.13 164.55-20.25 162.52-21.4 160.5-22.55 157.95-22.55L157.95-22.55Q155.4-22.55 153.37-21.4 151.34-20.25 150.17-18.13 149-16 149-13.25L149-13.25Q149-10.5 150.17-8.38 151.34-6.25 153.37-5.08 155.4-3.9 157.95-3.9L157.95-3.9ZM182.94-22.05Q184.19-24.35 186.64-25.55 189.09-26.75 192.59-26.75L192.59-26.75 192.59-22.1Q192.19-22.15 191.49-22.15L191.49-22.15Q187.59-22.15 185.37-19.83 183.14-17.5 183.14-13.2L183.14-13.2 183.14 0 178.34 0 178.34-26.5 182.94-26.5 182.94-22.05ZM211.29-5L212.79-1.55Q211.74-0.65 210.19-0.18 208.64 0.3 206.99 0.3L206.99 0.3Q202.99 0.3 200.79-1.85 198.59-4 198.59-8L198.59-8 198.59-32.3 203.39-32.3 203.39-26.5 210.99-26.5 210.99-22.55 203.39-22.55 203.39-8.2Q203.39-6.05 204.47-4.9 205.54-3.75 207.54-3.75L207.54-3.75Q209.74-3.75 211.29-5L211.29-5ZM238.79-26.5L243.59-26.5 243.59 0 238.99 0 238.99-4.2Q237.39-2 234.94-0.85 232.49 0.3 229.54 0.3L229.54 0.3Q225.69 0.3 222.64-1.4 219.59-3.1 217.86-6.18 216.14-9.25 216.14-13.25L216.14-13.25Q216.14-17.25 217.86-20.3 219.59-23.35 222.64-25.05 225.69-26.75 229.54-26.75L229.54-26.75Q232.39-26.75 234.79-25.68 237.19-24.6 238.79-22.5L238.79-22.5 238.79-26.5ZM229.94-3.9Q232.44-3.9 234.49-5.08 236.54-6.25 237.69-8.38 238.84-10.5 238.84-13.25L238.84-13.25Q238.84-16 237.69-18.13 236.54-20.25 234.49-21.4 232.44-22.55 229.94-22.55L229.94-22.55Q227.39-22.55 225.36-21.4 223.34-20.25 222.16-18.13 220.99-16 220.99-13.25L220.99-13.25Q220.99-10.5 222.16-8.38 223.34-6.25 225.36-5.08 227.39-3.9 229.94-3.9L229.94-3.9ZM260.74 0.3Q256.89 0.3 254.79-1.83 252.69-3.95 252.69-7.8L252.69-7.8 252.69-37.1 257.49-37.1 257.49-8.2Q257.49-6.05 258.51-4.9 259.54-3.75 261.59-3.75L261.59-3.75Q262.84-3.75 263.94-4.25L263.94-4.25 264.19-0.3Q262.54 0.3 260.74 0.3L260.74 0.3Z" fill="#542633" data-fill-palette-color="secondary"></path></g></svg></g></svg></g></svg></g></svg></g><g><svg viewBox="0 0 132.2497349141845 132.2497349141845" height="132.2497349141845" width="132.2497349141845"><g><svg></svg></g><g id="icon-0"><svg viewBox="0 0 132.2497349141845 132.2497349141845" height="132.2497349141845" width="132.2497349141845"><g><path d="M0 66.125c0-36.52 29.605-66.125 66.125-66.125 36.52 0 66.125 29.605 66.125 66.125 0 36.52-29.605 66.125-66.125 66.125-36.52 0-66.125-29.605-66.125-66.125zM66.125 127.201c33.732 0 61.077-27.345 61.076-61.076 0-33.732-27.345-61.077-61.076-61.077-33.732 0-61.077 27.345-61.077 61.077 0 33.732 27.345 61.077 61.077 61.076z" data-fill-palette-color="accent" fill="#ab50b1" stroke="transparent"></path></g><g transform="matrix(1,0,0,1,31.578866775945876,31.579214036033314)"><svg viewBox="0 0 69.09200136229275 69.09130684211787" height="69.09130684211787" width="69.09200136229275"><g><svg xmlns="http://www.w3.org/2000/svg" viewBox="8.918530041238219 8.917885993121288 82.16293991752357 82.16211400687871" x="0" y="0" height="69.09130684211787" width="69.09200136229275" class="icon-cg-0" data-fill-palette-color="accent" id="cg-0"><g data-name="Ebene 1" fill="#ab50b1" data-fill-palette-color="accent"><path d="M91 49.91a2 2 0 0 0-4 0A19.07 19.07 0 0 1 81 62.2a14.53 14.53 0 0 1-11.43 3.94 13.18 13.18 0 0 1-9.37-5.69c-0.23-0.32-0.44-0.66-0.64-1a23.51 23.51 0 0 0 5.84-1 2.07 2.07 0 0 0 1.3-1.25 2 2 0 0 0-1.25-2.64 18.42 18.42 0 0 1-2.18-1 27.17 27.17 0 0 0 5.51-4.38 25.69 25.69 0 0 0 5.56-8.69 23.46 23.46 0 0 0 1.49-10.06A22.61 22.61 0 0 0 73 21a23.31 23.31 0 0 0-6.23-7.12A24.67 24.67 0 0 0 49.92 9a2 2 0 0 0 0 4A19.07 19.07 0 0 1 62.2 19a14.55 14.55 0 0 1 3.94 11.43 13.18 13.18 0 0 1-5.69 9.37c-0.32 0.23-0.66 0.44-1 0.64a23.51 23.51 0 0 0-1-5.84 2.05 2.05 0 0 0-3.89-0.05 20.19 20.19 0 0 1-1 2.18 27.17 27.17 0 0 0-4.38-5.51 25.69 25.69 0 0 0-8.69-5.56 23.46 23.46 0 0 0-10.06-1.49A22.61 22.61 0 0 0 21 27a23.44 23.44 0 0 0-7.12 6.23A24.72 24.72 0 0 0 9 50.09a2 2 0 0 0 1.81 1.82 2 2 0 0 0 1.47-0.45A2.06 2.06 0 0 0 13 50.09 19.07 19.07 0 0 1 19 37.8a14.53 14.53 0 0 1 11.43-3.94 13.18 13.18 0 0 1 9.37 5.69c0.23 0.32 0.44 0.66 0.64 1a23.51 23.51 0 0 0-5.84 1 2.07 2.07 0 0 0-1.3 1.25 2 2 0 0 0 1.25 2.64 18.42 18.42 0 0 1 2.18 1 27.17 27.17 0 0 0-5.51 4.38 25.69 25.69 0 0 0-5.56 8.69 23.46 23.46 0 0 0-1.49 10.06A22.75 22.75 0 0 0 27 79a23.31 23.31 0 0 0 6.23 7.12A24.58 24.58 0 0 0 48 91.08c0.69 0 1.38 0 2.06-0.08a2 2 0 0 0 0-4A19.07 19.07 0 0 1 37.8 81a14.55 14.55 0 0 1-3.94-11.43 13.18 13.18 0 0 1 5.69-9.37c0.32-0.23 0.66-0.44 1-0.64a23.51 23.51 0 0 0 1 5.84 2.05 2.05 0 0 0 3.89 0 18.42 18.42 0 0 1 1-2.18 27.17 27.17 0 0 0 4.38 5.51 25.69 25.69 0 0 0 8.69 5.56 23.3 23.3 0 0 0 10.06 1.49A22.61 22.61 0 0 0 79 73a23.44 23.44 0 0 0 7.12-6.23A24.72 24.72 0 0 0 91 49.91ZM84.55 65.58A21.51 21.51 0 0 1 78 71.28a20.59 20.59 0 0 1-8.62 2.59 21.36 21.36 0 0 1-9.2-1.35 23.86 23.86 0 0 1-8-5.14 25.36 25.36 0 0 1-4.85-6.52l-0.79-1.49-0.93 1.4a19.07 19.07 0 0 0-2.06 4h-0.1A21.06 21.06 0 0 1 42.53 58l0-1.57-1.44 0.64a15.72 15.72 0 0 0-2.72 1.53 15.11 15.11 0 0 0-6.53 10.78 16.57 16.57 0 0 0 4.44 13A21.12 21.12 0 0 0 49.91 89a22.59 22.59 0 0 1-15.49-4.45A21.38 21.38 0 0 1 28.72 78a20.59 20.59 0 0 1-2.59-8.62 21.36 21.36 0 0 1 1.35-9.2 23.86 23.86 0 0 1 5.14-8 25.36 25.36 0 0 1 6.52-4.85l1.49-0.79-1.4-0.93a18.89 18.89 0 0 0-4-2l0-0.11h0a21.13 21.13 0 0 1 6.35-0.95H42l1.57 0-0.64-1.44a15.72 15.72 0 0 0-1.53-2.72 15.11 15.11 0 0 0-10.78-6.53 16.57 16.57 0 0 0-13 4.44A21.12 21.12 0 0 0 11 49.91a22.59 22.59 0 0 1 4.45-15.49A21.51 21.51 0 0 1 22 28.72a20.59 20.59 0 0 1 8.62-2.59 21.36 21.36 0 0 1 9.2 1.35 23.86 23.86 0 0 1 8 5.14 25.36 25.36 0 0 1 4.85 6.52l0.79 1.49 0.93-1.4a19.07 19.07 0 0 0 2.06-4h0.1A21.06 21.06 0 0 1 57.47 42l0 1.57 1.44-0.64a15.72 15.72 0 0 0 2.72-1.53 15.11 15.11 0 0 0 6.53-10.78 16.57 16.57 0 0 0-4.44-13A21.12 21.12 0 0 0 50.09 11a22.59 22.59 0 0 1 15.49 4.45A21.24 21.24 0 0 1 71.28 22a20.59 20.59 0 0 1 2.59 8.62 21.36 21.36 0 0 1-1.35 9.2 23.86 23.86 0 0 1-5.14 8 25.36 25.36 0 0 1-6.52 4.85l-1.49 0.79 1.4 0.93a18.89 18.89 0 0 0 4 2l0 0.11h0a21 21 0 0 1-6.83 0.95l-1.57 0 0.64 1.44a15.72 15.72 0 0 0 1.53 2.72 15.11 15.11 0 0 0 10.78 6.53 16.56 16.56 0 0 0 13-4.44A21.12 21.12 0 0 0 89 50.08h0A22.59 22.59 0 0 1 84.55 65.58ZM28.88 23.22h0a12.23 12.23 0 0 1 8.84-2.13 9.08 9.08 0 0 1 3.65 1.41A7.33 7.33 0 0 1 43.67 25a5.92 5.92 0 0 0 1.55 1.79A5.82 5.82 0 0 0 48.79 28a5.88 5.88 0 0 0 3.6-10.53L51.82 17a17.75 17.75 0 0 0-25.31 3.81 1.71 1.71 0 0 0 2.37 2.39Zm8.92-7.55a15.64 15.64 0 0 1 12.8 2.94l0.57 0.44a3.88 3.88 0 0 1-4.73 6.14 4.07 4.07 0 0 1-1-1.19 9.35 9.35 0 0 0-2.91-3.16 11.25 11.25 0 0 0-4.44-1.73A13.07 13.07 0 0 0 36 18.94a14.53 14.53 0 0 0-6.84 1.78A16 16 0 0 1 37.8 15.67ZM22.5 58.62h0A7.43 7.43 0 0 1 25 56.33a5.88 5.88 0 0 0 0.72-9.79 5.9 5.9 0 0 0-8.24 1.07l-0.44 0.57a17.75 17.75 0 0 0 3.81 25.31 1.72 1.72 0 0 0 1 0.3 1.64 1.64 0 0 0 1-0.29 1.7 1.7 0 0 0 0.44-2.39 12.27 12.27 0 0 1-2.12-8.84A8.93 8.93 0 0 1 22.5 58.62ZM20.84 57.5a11.31 11.31 0 0 0-1.73 4.44 14 14 0 0 0 1.62 8.92 15.91 15.91 0 0 1-5.06-8.66 15.64 15.64 0 0 1 2.94-12.8l0.43-0.57a3.9 3.9 0 0 1 3.08-1.51 3.88 3.88 0 0 1 3.07 6.24 4.07 4.07 0 0 1-1.19 1A9.44 9.44 0 0 0 20.84 57.5ZM71.12 76.78h0a12.23 12.23 0 0 1-8.84 2.13 9.08 9.08 0 0 1-3.65-1.41A7.43 7.43 0 0 1 56.33 75a5.89 5.89 0 0 0-9.79-0.72 5.88 5.88 0 0 0 1.07 8.24l0.57 0.44a17.84 17.84 0 0 0 7.12 3.3 17.39 17.39 0 0 0 3.67 0.38 17.7 17.7 0 0 0 3.64-0.37 17.9 17.9 0 0 0 10.88-7.12 1.71 1.71 0 0 0-2.37-2.39ZM62.2 84.33a15.64 15.64 0 0 1-12.8-2.94L48.83 81a3.88 3.88 0 0 1-0.7-5.43 3.88 3.88 0 0 1 5.43-0.71 4.07 4.07 0 0 1 1 1.19 9.44 9.44 0 0 0 2.91 3.16 11.25 11.25 0 0 0 4.44 1.73 14.06 14.06 0 0 0 8.92-1.61A16 16 0 0 1 62.2 84.33ZM77.5 41.38h0A7.33 7.33 0 0 1 75 43.67a5.88 5.88 0 1 0 7.52 8.72l0.44-0.57a17.75 17.75 0 0 0-3.81-25.31 1.72 1.72 0 0 0-1.94 0 1.7 1.7 0 0 0-0.44 2.39 12.27 12.27 0 0 1 2.12 8.84A8.93 8.93 0 0 1 77.5 41.38Zm1.66 1.12a11.31 11.31 0 0 0 1.73-4.44 14 14 0 0 0-1.62-8.92 15.91 15.91 0 0 1 5.06 8.66 15.64 15.64 0 0 1-2.94 12.8l-0.43 0.57a3.89 3.89 0 0 1-5.44 0.7 3.87 3.87 0 0 1-0.71-5.43 4.07 4.07 0 0 1 1.19-1A9.44 9.44 0 0 0 79.16 42.5Z" fill="#ab50b1" data-fill-palette-color="accent"></path></g></svg></g></svg></g></svg></g></svg></g></svg></g><defs></defs></svg><rect width="395.52" height="94.3834764155224" fill="none" stroke="none" visibility="hidden"></rect></g></svg></g></svg>